<?xml version="1.0" encoding="UTF-8"?>
<svg width="170px" height="66px" viewBox="0 0 170 66" version="1.1" xmlns="http://www.w3.org/2000/svg" xmlns:xlink="http://www.w3.org/1999/xlink">
    <title>编组 60</title>
    <defs>
        <linearGradient x1="100%" y1="41.3341462%" x2="0%" y2="58.6658538%" id="linearGradient-1">
            <stop stop-color="#3048FF" offset="0%"></stop>
            <stop stop-color="#28EABD" offset="99.9371722%"></stop>
        </linearGradient>
    </defs>
    <g id="星空学院" stroke="none" stroke-width="1" fill="none" fill-rule="evenodd">
        <g id="首页/index" transform="translate(-500.000000, -120.000000)">
            <g id="编组-60" transform="translate(500.000000, 120.000000)">
                <g id="STAREX-Academy" transform="translate(5.128000, 3.152000)" fill="url(#linearGradient-1)" fill-rule="nonzero">
                    <path d="M23.148,3.204 C21.528,1.116 18.684,0 15.48,0 C9.324,0 4.968,3.384 4.968,9 C4.968,10.98 5.76,13.968 10.944,15.3 L12.888,15.804 C14.292,16.164 15.048,16.632 15.048,18 C15.048,19.476 13.32,20.772 10.98,20.772 C8.748,20.772 6.948,20.196 5.688,18.756 L1.368,22.536 C3.6,25.092 6.156,26.064 10.44,26.064 C15.912,26.064 21.06,23.58 21.06,17.388 C21.06,13.716 19.584,11.628 15.084,10.476 L13.14,9.972 C12.096,9.684 10.944,9.396 10.944,8.028 C10.944,6.732 12.348,5.22 14.796,5.22 C16.488,5.22 17.892,5.544 18.972,6.876 L23.148,3.204 Z M44.424,0.216 L43.344,5.508 L37.476,5.508 L33.408,25.848 L27.432,25.848 L31.5,5.508 L25.38,5.508 L26.46,0.216 L44.424,0.216 Z M59.004,0.216 L62.784,25.848 L56.7,25.848 L56.34,21.816 L48.744,21.816 L46.764,25.848 L40.392,25.848 L54.36,0.216 L59.004,0.216 Z M55.08,9.396 L51.192,16.956 L55.872,16.956 L55.08,9.396 Z M86.832,7.632 C86.832,3.672 84.852,0.216 79.488,0.216 L70.38,0.216 L65.232,25.848 L71.208,25.848 L73.188,16.128 L75.456,16.128 L78.156,25.848 L84.708,25.848 L81.288,15.372 C85.104,13.788 86.832,10.476 86.832,7.632 Z M80.82,7.956 C80.82,9 80.136,11.16 77.292,11.16 L74.16,11.16 L75.312,5.544 L78.48,5.544 C79.956,5.544 80.82,6.372 80.82,7.956 Z M109.368,0.216 L108.324,5.472 L97.776,5.472 L96.804,10.296 L105.912,10.296 L104.868,15.552 L95.76,15.552 L94.752,20.592 L105.516,20.592 L104.472,25.848 L87.696,25.848 L92.844,0.216 L109.368,0.216 Z M118.26,0.216 L120.6,7.632 L125.64,0.216 L132.552,0.216 L123.048,12.888 L128.232,25.848 L121.5,25.848 L118.836,17.784 L113.22,25.848 L106.272,25.848 L116.388,12.528 L111.564,0.216 L118.26,0.216 Z M22.392,54.848 L18.612,29.216 L13.968,29.216 L0,54.848 L6.372,54.848 L8.352,50.816 L15.948,50.816 L16.308,54.848 L22.392,54.848 Z M15.48,45.956 L10.8,45.956 L14.688,38.396 L15.48,45.956 Z M35.46,35.264 C38.34,35.264 40.104,36.488 41.22,37.856 L41.22,37.856 L36.972,41.6 C36.396,40.844 35.784,40.34 34.92,40.34 C34.2,40.34 33.516,40.628 32.976,41.204 C32.184,42.032 31.572,43.4 31.248,45.164 C31.104,45.92 30.996,46.64 30.996,47.432 C30.996,48.836 31.392,49.988 32.94,49.988 C33.948,49.988 34.776,49.52 35.604,48.692 L35.604,48.692 L38.7,52.76 C37.152,54.128 34.884,55.064 32.328,55.064 C29.124,55.064 25.344,53.12 25.344,48.188 C25.344,47.18 25.452,46.136 25.632,45.164 C27.216,36.524 32.076,35.264 35.46,35.264 Z M50.94,35.264 C54.468,35.264 58.032,36.776 58.032,40.844 C58.032,41.42 57.924,42.104 57.816,42.644 L57.816,42.644 L55.368,54.848 L49.968,54.848 L50.292,53.264 C49.392,54.164 48.024,55.028 46.08,55.028 C42.552,55.028 40.68,52.364 40.68,49.736 C40.68,47.684 41.328,46.136 42.408,45.092 C43.776,43.76 45.828,43.148 48.06,43.148 L48.06,43.148 L52.092,43.148 L52.236,42.464 C52.308,42.176 52.344,41.96 52.344,41.636 C52.344,40.664 51.732,39.944 50.04,39.944 C48.42,39.944 47.16,40.664 46.44,41.492 L46.44,41.492 L43.632,37.748 C45.108,36.344 47.16,35.264 50.94,35.264 Z M51.336,46.892 L48.6,46.892 C46.98,46.892 46.188,48.008 46.188,49.088 C46.188,49.88 46.764,50.528 47.88,50.528 C48.924,50.528 49.752,50.06 50.292,49.52 C50.796,49.016 51.084,48.224 51.228,47.432 L51.228,47.432 L51.336,46.892 Z M89.496,35.264 C93.6,35.264 96.732,37.856 96.732,42.32 C96.732,43.796 96.444,45.452 96.084,46.964 L96.084,46.964 L84.924,46.964 C84.888,47.324 84.852,47.504 84.852,47.756 C84.852,49.304 85.788,50.348 87.696,50.348 C89.316,50.348 90.648,49.7 91.836,48.548 L91.836,48.548 L94.644,52.22 C92.7,54.092 89.856,55.064 87.012,55.064 C83.88,55.064 79.524,53.624 79.524,48.188 C79.524,41.312 82.944,35.264 89.496,35.264 Z M79.632,29.216 L74.52,54.848 L69.12,54.848 L69.444,53.228 C68.4,54.38 66.852,55.064 65.016,55.064 C60.984,55.064 59.94,51.968 59.94,49.988 C59.94,48.656 60.192,47.072 60.588,45.164 C61.452,40.844 62.172,38.468 63.54,37.1 C65.016,35.624 66.672,35.264 68.328,35.264 C70.056,35.264 71.532,35.876 72.468,37.028 L72.468,37.028 L74.016,29.216 L79.632,29.216 Z M69.552,40.34 C67.464,40.34 66.852,41.888 66.204,45.164 C66.024,46.064 65.808,47.36 65.808,48.08 C65.808,48.656 65.88,49.988 67.5,49.988 C69.588,49.988 70.2,48.44 70.848,45.164 C71.028,44.264 71.244,42.968 71.244,42.248 C71.244,41.672 71.172,40.34 69.552,40.34 Z M89.172,39.872 C87.696,39.872 86.364,40.772 85.644,43.256 L85.644,43.256 L91.296,43.256 C91.368,42.968 91.404,42.536 91.404,42.32 C91.404,40.844 90.648,39.872 89.172,39.872 Z M126.468,40.592 C126.468,36.848 123.48,35.264 121.104,35.264 C118.116,35.264 116.604,36.272 115.416,37.352 C114.336,35.624 112.572,35.264 111.6,35.264 C109.908,35.264 108.072,35.948 106.848,37.172 L107.172,35.48 L101.808,35.48 L97.956,54.848 L103.572,54.848 L105.912,43.148 C106.344,40.988 107.604,40.34 108.9,40.34 C109.62,40.34 110.52,40.88 110.52,42.176 C110.52,42.464 110.484,42.824 110.412,43.148 L108.072,54.848 L113.688,54.848 L116.028,43.148 C116.46,40.988 117.72,40.34 119.016,40.34 C119.736,40.34 120.636,40.88 120.636,42.176 C120.636,42.464 120.6,42.824 120.528,43.148 L118.188,54.848 L123.804,54.848 L126.216,42.824 C126.324,42.248 126.468,41.492 126.468,40.592 Z M147.312,35.48 L141.408,35.48 L136.188,46.28 L135.108,35.48 L129.564,35.48 L132.264,52.94 L131.436,54.488 C130.86,55.568 130.32,56.216 129.276,56.216 L128.124,56.216 L127.08,61.328 L129.168,61.328 C131.148,61.328 132.696,60.788 134.064,59.384 C134.712,58.736 135.288,57.8 135.648,57.152 L147.312,35.48 Z" id="形状结合"></path>
                </g>
                <rect id="矩形" x="0" y="0" width="170" height="66"></rect>
            </g>
        </g>
    </g>
</svg>