<svg data-v-6f5f1312="" width="170" height="29" viewBox="0 0 170 29" fill="none" xmlns="http://www.w3.org/2000/svg">
<g data-v-6f5f1312="" clip-path="url(#clip0_2621_137)"><path data-v-6f5f1312="" d="M122.011 8.44444C122.011 4 126.198 0 132.989 0C137.743 0 141.591 1.88889 144.081 5.11111L139.893 9.11111C138.309 7.33333 135.932 5.77778 132.763 5.77778C129.82 5.77778 128.575 6.77778 128.575 8.44444C128.575 12.6667 144.308 10.2222 144.308 20.3333C144.308 25.3333 139.667 29.1111 133.555 29.1111C126.764 29.1111 122.35 25.8889 120.426 22.3333L124.953 18.5556C126.764 21.4444 129.82 23.3333 133.329 23.3333C136.498 23.3333 137.743 22.1111 137.743 20.7778C137.743 15.8889 122.011 18.5556 122.011 8.44444ZM26.4847 23.2222C23.9947 26.8889 19.4674 28.8889 14.4874 28.8889C5.65912 28.8889 0 23.1111 0 14.5556C0 6.55556 5.88549 0.111111 14.6005 0.111111C19.8069 0.111111 23.9947 2.22222 26.032 5.33333L21.8442 9.11111C20.1465 7 17.4301 6 15.0533 6C9.96005 6 6.4514 9.22222 6.4514 14.4444C6.4514 19.4444 10.0732 22.8889 14.9401 22.8889C18.1092 22.8889 20.8256 21.5556 22.7497 19.2222L26.4847 23.2222ZM148.043 0.666667H169.66V6.44444H154.268V11.5556H168.642V17.1111H154.268V22.6667H170V28.4444H148.043V0.666667ZM48.3289 17.3333H35.7656V28.4444H29.5406V0.666667H35.7656V11.5556H48.3289V0.666667H54.5539V28.4444H48.3289V17.3333Z" fill="#fff"></path> <path data-v-6f5f1312="" d="M104.577 0.111328C99.4837 0.111328 96.3146 1.55577 92.6927 5.66688L92.24 6.11133L96.5409 10.3336L96.9936 9.8891C99.1441 7.55577 101.634 6.11133 104.577 6.11133C108.651 6.11133 112.613 9.33355 112.613 14.5558C112.613 19.6669 108.991 23.0002 104.577 23.0002C103.219 23.0002 101.86 22.6669 100.729 22.1113L100.276 21.8891C100.05 21.778 99.9364 21.6669 99.71 21.4447L92.4663 14.3335L88.2786 10.0002L81.8272 3.778C79.224 1.55577 76.3944 0.111328 72.999 0.111328C64.8498 0.111328 58.3984 6.44466 58.3984 14.4447C58.3984 22.6669 64.8498 28.778 72.999 28.778C77.6395 28.778 81.6008 26.6669 84.3172 23.5558L84.7699 23.1113L80.5822 19.0002L80.1295 19.4447C77.6395 21.3335 75.9417 22.8891 72.999 22.8891C68.698 22.8891 64.963 19.6669 64.963 14.4447C64.963 9.33355 68.2453 6.00022 72.5462 6.00022C74.5835 6.00022 76.9604 7.33355 78.4317 8.778C79.5636 7.00022 80.6954 5.44466 81.9404 3.66688L81.3745 4.44466L78.3185 8.88911L93.8245 24.2224L96.0882 26.0002C98.465 27.778 101.295 28.8891 104.577 28.8891C112.613 28.8891 119.177 22.6669 119.177 14.5558C119.177 6.22244 112.726 0.111328 104.577 0.111328Z" fill="#5432E2"></path></g> <defs data-v-6f5f1312=""><clipPath data-v-6f5f1312="" id="clip0_2621_137"><rect data-v-6f5f1312="" width="170" height="29" fill="white"></rect></clipPath></defs></svg>